<svg xmlns="http://www.w3.org/2000/svg" width="71" height="79" fill="none"><path fill="#5FA04E" d="M35.6254 79c-1.0816 0-2.0911-.2879-3.0285-.7918l-9.5902-5.6866c-1.4421-.7918-.7211-1.0797-.2884-1.2237 1.9469-.6478 2.3074-.7918 4.3264-1.9435.2163-.144.5047-.072.721.072l7.3549 4.3909c.2885.144.649.144.8653 0l28.7706-16.6279c.2884-.144.4326-.4319.4326-.7918V23.2137c0-.3599-.1442-.6478-.4326-.7918L35.9859 5.866c-.2884-.144-.649-.144-.8653 0L6.3501 22.422c-.2885.144-.4327.5039-.4327.7918v33.1839c0 .2879.1442.6478.4327.7918l7.8596 4.5349c4.2543 2.1594 6.9222-.3599 6.9222-2.8793V26.093c0-.4319.3606-.8637.8653-.8637h3.6775c.4326 0 .8652.3599.8652.8637v32.752c0 5.6866-3.1006 8.9978-8.5086 8.9978-1.6584 0-2.9563 0-6.6338-1.7996l-7.5712-4.3189C1.9516 60.6445.798 58.629.798 56.4696V23.2857c0-2.1594 1.1537-4.1749 3.0284-5.2547L32.597 1.4031c1.8027-1.0077 4.2543-1.0077 6.057 0L67.4244 18.031c1.8748 1.0798 3.0285 3.0953 3.0285 5.2547v33.1839c0 2.1594-1.1537 4.1749-3.0285 5.2547L38.6539 78.3522c-.8653.3599-1.9469.6478-3.0285.6478Z"/><path fill="#5FA04E" d="M44.5666 56.1816c-12.6187 0-15.2145-5.7586-15.2145-10.6534 0-.4318.3605-.8637.8652-.8637h3.7496c.4326 0 .7932.2879.7932.7198.5768 3.815 2.2353 5.6866 9.8786 5.6866 6.0569 0 8.6528-1.3677 8.6528-4.6069 0-1.8715-.7211-3.2392-10.1671-4.175-7.8596-.7918-12.7628-2.5193-12.7628-8.7818 0-5.8306 4.9032-9.2857 13.1234-9.2857 9.2296 0 13.7723 3.1672 14.3492 10.0775 0 .216-.0721.4319-.2163.6479-.1442.1439-.3606.2879-.5769.2879h-3.8216c-.3606 0-.7211-.2879-.7932-.6479-.8653-3.959-3.1006-5.2547-9.0133-5.2547-6.6339 0-7.427 2.3035-7.427 4.031 0 2.0875.9374 2.7354 9.8786 3.8871 8.8691 1.1517 13.0513 2.8073 13.0513 8.9978 0 6.3344-5.2638 9.9335-14.3492 9.9335Z"/></svg>